# xmcd
# 
# Track frame offsets:
#     150
#     26994
#     53522
#     85551
#     108734
#     129377
#     165062
#     195578
#     217519
# 
# Disc length: 3377
# 
# Revision: 1
# Processed by: cddbd v1.5.2PL0 Copyright (c) Steve Scherf et al.
# Submitted via: fre:ac v1.0.17
# 
DISCID=630d2f09
DTITLE=Jones, Oliver - One More Time
DYEAR=2006
DGENRE=Jazz
TTITLE0=One More Time
TTITLE1=Dance Again Diana
TTITLE2=Good Day Miss Lee
TTITLE3=Ballad For A Lonely Man
TTITLE4=Snowy Bossa
TTITLE5=Waltz For Debbie
TTITLE6=Days Of Wine And Roses
TTITLE7=Body And Soul
TTITLE8=Something For Chuck
EXTD=YEAR: 2006
EXTT0=
EXTT1=
EXTT2=
EXTT3=
EXTT4=
EXTT5=
EXTT6=
EXTT7=
EXTT8=
PLAYORDER=
